<svg id="a" xmlns="http://www.w3.org/2000/svg" viewBox="0 0 12 12">
<path d="m6,1.04c-.31,0-.63.24-.87.72l-.88,1.76c-.12.24-.44.48-.7.53l-1.6.26c-1.02.17-1.26.91-.52,1.64l1.24,1.24c.21.21.32.61.26.91l-.36,1.53c-.28,1.21.37,1.68,1.44,1.05l1.49-.88c.14-.08.32-.12.49-.12V1.04Z" fill="currentColor" class="active-half" />
<path d="m10.52,5.95c.73-.73.49-1.47-.53-1.64l-1.59-.26c-.27-.05-.59-.28-.71-.53l-.88-1.76c-.24-.48-.55-.72-.86-.72v8.63c.18,0,.36.04.49.12l1.49.88c1.08.64,1.72.17,1.44-1.05l-.35-1.53c-.07-.29.05-.7.26-.91l1.24-1.24Z" fill="currentColor" />
</svg>