<svg id="b" xmlns="http://www.w3.org/2000/svg" viewBox="0 0 500 500">
  <path id="e" d="m439.09,249.66c0-97.83-74.64-170.98-166.71-170.98-82.1,0-136.1,59.41-149.02,123.62-1.86,7.7-1.33,15.09,6.57,15.12,5.74.02,10.71-4.11,12.08-9.69,15.72-63.98,70.56-110.83,137.82-110.83,24.91,0,25.38,15.38,6.7,13.63,0,0,0,0-.01,0-65.05,0-134.23,47.13-138.39,131.78-.28,5.59,4.26,10.25,9.86,10.18,5.06-.06,9.25-3.97,9.6-9.02,3.88-56.95,44.68-117.69,116.79-117.69,65.13,0,78.07,16.12,22.37,16.12-75.41,0-91.73,35.53-95.49,41.27-3.77,5.74-8.86,20.7-6.99,24.41h0c3.22,6.35,11.64,7.84,16.81,2.96.01-.01.02-.02.03-.04,12.26-19.56,13.37-48.35,83.58-49.91,57.93,0,103.9,36.67,103.9,111.69,0,98.03-75.64,138.26-95.01,148.75-.16.09-.05.34.13.29,72.09-19.53,125.4-88.97,125.4-171.64Z" fill="currentColor" />
  <path id="f" d="m57.21,250.34c0,97.83,74.64,170.98,166.71,170.98,82.1,0,136.1-59.41,149.02-123.62,1.86-7.7,1.33-15.09-6.57-15.12-5.74-.02-10.71,4.11-12.08,9.69-15.72,63.98-70.56,110.83-137.82,110.83-24.91,0-25.38-15.38-6.7-13.63,0,0,0,0,.01,0,65.05,0,134.23-47.13,138.39-131.78.28-5.59-4.26-10.25-9.86-10.18-5.06.06-9.25,3.97-9.6,9.02-3.88,56.95-44.68,117.69-116.79,117.69-65.13,0-78.07-16.12-22.37-16.12,75.41,0,91.73-35.53,95.49-41.27,3.77-5.74,8.86-20.7,6.99-24.41h0c-3.22-6.35-11.64-7.84-16.81-2.96-.01.01-.02.02-.03.04-12.26,19.56-13.37,48.35-83.58,49.91-57.93,0-91.72-69.29-91.72-111.69,0-98.03,63.46-138.26,82.82-148.75.16-.09.05-.34-.13-.29-72.09,19.53-125.4,88.97-125.4,171.64Z" fill="currentColor" />
  <path id="g" d="m250,0C111.93,0,0,111.93,0,250s111.93,250,250,250,250-111.93,250-250S388.07,0,250,0Zm0,465.73c-119.14,0-215.73-96.59-215.73-215.73S130.86,34.27,250,34.27s215.73,96.59,215.73,215.73-96.59,215.73-215.73,215.73Z" fill="currentColor" />
</svg>